<?xml version="1.0" encoding="UTF-8" standalone="no"?>
<!-- Created with Inkscape (http://www.inkscape.org/) -->

<svg
   width="60mm"
   height="60mm"
   viewBox="0 0 60 60"
   version="1.1"
   id="svg9355"
   stroke="#000000"
   stroke-width="3.22602"
   sodipodi:docname="logo.svg"
   inkscape:version="1.1.2 (0a00cf5339, 2022-02-04)"
   xmlns:inkscape="http://www.inkscape.org/namespaces/inkscape"
   xmlns:sodipodi="http://sodipodi.sourceforge.net/DTD/sodipodi-0.dtd"
   xmlns="http://www.w3.org/2000/svg"
   xmlns:svg="http://www.w3.org/2000/svg">
  <sodipodi:namedview
     id="namedview9357"
     pagecolor="#ffffff"
     bordercolor="#999999"
     borderopacity="1"
     inkscape:pageshadow="0"
     inkscape:pageopacity="0"
     inkscape:pagecheckerboard="0"
     inkscape:document-units="mm"
     showgrid="false"
     width="60mm"
     inkscape:zoom="1.877186"
     inkscape:cx="-10.121533"
     inkscape:cy="133.71078"
     inkscape:window-width="1920"
     inkscape:window-height="1009"
     inkscape:window-x="0"
     inkscape:window-y="42"
     inkscape:window-maximized="1"
     inkscape:current-layer="layer1" />
  <defs
     id="defs9352" />
  <g
     inkscape:label="Layer 1"
     inkscape:groupmode="layer"
     id="layer1">
    <rect
       style="fill:none;fill-opacity:1;stroke-linejoin:round;stroke-miterlimit:4;stroke-dasharray:none;stroke-opacity:1;paint-order:markers fill stroke"
       id="rect846"
       width="56.773979"
       height="53.773972"
       x="1.61301"
       y="2.9130101"
       inkscape:export-filename="/home/sann/Documents/proyectos/finapps/repos/ex_finance/priv/static/images/logo.png"
       inkscape:export-xdpi="96"
       inkscape:export-ydpi="96"
       ry="9.4760303" />
    <path
       style="fill:none;fill-opacity:1;stroke:none;stroke-linejoin:round;stroke-miterlimit:4;stroke-dasharray:none;stroke-opacity:1;paint-order:markers fill stroke"
       id="path1142"
       d="m 10.167501,54.700096 c 1.551456,-1.341255 2.857933,-2.934605 4.143698,-4.524501 1.534705,-1.999581 2.943734,-4.0904 4.329989,-6.194174 1.299634,-2.048954 2.627235,-4.079455 3.905925,-6.141678 1.131362,-1.85339 2.176174,-3.758464 3.353254,-5.583434 1.008323,-1.516348 2.148908,-2.925043 3.403273,-4.241949 0.825455,-0.836521 1.608379,-1.713538 2.418778,-2.564688 0.484403,-0.57298 1.016717,-1.112615 1.45222,-1.725981 0.193537,-0.272573 0.361,-0.562785 0.545884,-0.841301 0.08868,-0.117976 0.167742,-0.243837 0.266049,-0.35392 0.06987,-0.07825 0.326814,-0.260588 0.235934,-0.208214 -1.342406,0.773644 -2.653963,1.599971 -3.995598,2.374946 -0.0212,0.01225 -0.0052,-0.09194 0.01015,-0.07281 0.104182,0.13015 0.264162,0.633029 0.290666,0.706252 0.341866,1.408839 0.691502,2.813524 1.105059,4.203357 0.529371,1.600144 1.016042,3.210638 1.474554,4.832456 0.475515,1.694009 0.717926,3.431328 0.860021,5.180836 0.06829,1.40684 0.204514,2.810181 0.42284,4.201621 0.0826,0.350369 0.461229,0.966699 0.945643,0.687888 4.07161,-2.343477 3.881768,-1.622224 5.240129,-4.115364 0.749547,-1.291958 1.390608,-2.645959 1.959271,-4.026033 0.609733,-1.477546 1.058614,-3.014424 1.438766,-4.564927 0.366359,-1.426293 0.608495,-2.883373 0.844038,-4.336361 0.207957,-1.487933 0.565878,-2.941419 1.036556,-4.366129 0.332279,-1.083376 0.871563,-2.066174 1.478647,-3.014094 0.630045,-0.895663 1.124845,-1.870597 1.617268,-2.845286 0.524551,-1.099226 1.010148,-2.216792 1.531717,-3.317186 0.328628,-0.756309 0.668701,-1.507569 0.98809,-2.26758 0.143136,-0.579099 0.518922,-1.027792 0.833313,-1.515475 0.312696,-0.4363204 0.643317,-0.8628211 0.926374,-1.3193953 0.04577,-0.069917 0.09154,-0.1398252 0.137237,-0.2097384 0,0 -4.445887,1.9491747 -4.445887,1.9491747 v 0 c -0.04515,0.06874 -0.09043,0.137484 -0.135616,0.20623 -0.311582,0.438061 -0.621323,0.877588 -0.92458,1.32132 -0.330807,0.495095 -0.591078,1.020159 -0.778983,1.586682 -0.319118,0.747855 -0.637071,1.496099 -0.963016,2.241023 -0.48718,1.105112 -0.97974,2.20848 -1.521362,3.288295 -0.506798,0.968254 -1.040701,1.921035 -1.661628,2.821923 -0.589117,0.971483 -1.041213,2.010541 -1.376095,3.097467 -0.44825,1.450198 -0.78403,2.924056 -1.002743,4.427341 -0.238552,1.443325 -0.499395,2.885365 -0.864796,4.302747 -0.387893,1.520507 -0.822057,3.032571 -1.436212,4.479615 -0.610465,1.361958 -1.275168,2.699517 -2.020066,3.993549 -0.121849,0.200863 -0.232317,0.409079 -0.365527,0.602588 -0.133822,0.194395 -0.650308,0.654143 -0.434246,0.559198 1.276035,-0.560733 2.424475,-1.380126 3.679958,-1.985475 0.10532,-0.05078 -0.244288,0.456243 -0.361523,0.368707 -0.08675,-0.06479 -0.09671,-0.193748 -0.145059,-0.29062 -0.249551,-1.369128 -0.339319,-2.761792 -0.446034,-4.147864 -0.1766,-1.770074 -0.445704,-3.532378 -0.916927,-5.2505 -0.464435,-1.6228 -0.933001,-3.243861 -1.452478,-4.850125 -0.411682,-1.400504 -0.76336,-2.813964 -1.069256,-4.241341 -0.02842,-0.09238 -0.415592,-1.406289 -0.643623,-1.300835 -3.071468,1.420463 -3.588592,1.332652 -4.755968,3.087496 -0.601056,0.8868 -1.26925,1.721575 -2.019174,2.48865 -0.799048,0.84525 -1.575877,1.711064 -2.378811,2.552699 -1.220365,1.339948 -2.310004,2.783464 -3.31093,4.295105 -1.156264,1.823064 -2.182904,3.72407 -3.305233,5.568153 -1.288539,2.05582 -2.621834,4.082957 -3.917464,6.134306 -1.379206,2.098478 -2.79556,4.174531 -4.348074,6.150084 -1.3290825,1.611743 -2.688215,3.23441 -4.3686463,4.495575 0,0 4.4902443,-1.788298 4.4902443,-1.788298 z"
       inkscape:export-filename="/home/sann/Documents/proyectos/finapps/repos/ex_finance/priv/static/images/logo.png"
       inkscape:export-xdpi="96"
       inkscape:export-ydpi="96" />
    <path
       style="fill:none;stroke-linecap:butt;stroke-linejoin:round;stroke-miterlimit:4;stroke-dasharray:none;stroke-opacity:1;paint-order:markers fill stroke"
       d="m 4.2767912,54.551556 23.8982198,-27.259558 5,5.284 15.952846,-19.013799 -8.222548,-0.02387 8.222548,0.02387 -0.0099,8.369379 0.0099,-8.369379"
       id="path2339"
       sodipodi:nodetypes="cccccccc"
       inkscape:export-filename="/home/sann/Documents/proyectos/finapps/repos/ex_finance/priv/static/images/logo.png"
       inkscape:export-xdpi="96"
       inkscape:export-ydpi="96" />
  </g>
</svg>
